<svg width="18" height="20" viewBox="0 0 18 20" fill="none" xmlns="http://www.w3.org/2000/svg">
<path fill-rule="evenodd" clip-rule="evenodd" d="M9.00004 0C9.41426 0 9.75004 0.335786 9.75004 0.75V1.75C9.75004 2.16421 9.41426 2.5 9.00004 2.5C8.58583 2.5 8.25004 2.16421 8.25004 1.75V0.75C8.25004 0.335786 8.58583 0 9.00004 0ZM15 10C15 13.3137 12.3138 16 9.00004 16C5.68634 16 3.00004 13.3137 3.00004 10C3.00004 6.68629 5.68634 4 9.00004 4C12.3138 4 15 6.68629 15 10ZM9.75004 18.25C9.75004 17.8358 9.41426 17.5 9.00004 17.5C8.58583 17.5 8.25004 17.8358 8.25004 18.25V19.25C8.25004 19.6642 8.58583 20 9.00004 20C9.41426 20 9.75004 19.6642 9.75004 19.25V18.25ZM0.339889 5.00002C0.546995 4.6413 1.00569 4.51839 1.36441 4.7255L2.23043 5.2255C2.58915 5.4326 2.71206 5.8913 2.50495 6.25002C2.29785 6.60874 1.83915 6.73164 1.48043 6.52454L0.614408 6.02454C0.255688 5.81743 0.132782 5.35874 0.339889 5.00002ZM16.5197 13.4755C16.161 13.2684 15.7023 13.3913 15.4952 13.75C15.2881 14.1087 15.411 14.5674 15.7697 14.7745L16.6357 15.2745C16.9944 15.4816 17.4531 15.3587 17.6602 15C17.8673 14.6413 17.7444 14.1826 17.3857 13.9755L16.5197 13.4755ZM17.6602 4.99998C17.8673 5.3587 17.7444 5.8174 17.3857 6.0245L16.5197 6.5245C16.1609 6.73161 15.7022 6.6087 15.4951 6.24998C15.288 5.89126 15.4109 5.43257 15.7697 5.22546L16.6357 4.72546C16.9944 4.51836 17.4531 4.64126 17.6602 4.99998ZM2.23041 14.7745C2.58913 14.5674 2.71203 14.1087 2.50493 13.75C2.29782 13.3913 1.83913 13.2684 1.48041 13.4755L0.614383 13.9755C0.255664 14.1826 0.132757 14.6413 0.339864 15C0.546971 15.3587 1.00566 15.4816 1.36438 15.2745L2.23041 14.7745Z" fill="#28303F"/>
</svg>
