<svg width="20" height="14" viewBox="0 0 20 14" fill="none" xmlns="http://www.w3.org/2000/svg">
<path d="M1.25 0C0.697715 0 0.25 0.447715 0.25 1V12.5C0.25 13.0523 0.697715 13.5 1.25 13.5H18.75C19.3023 13.5 19.75 13.0523 19.75 12.5V1C19.75 0.447715 19.3023 0 18.75 0H1.25ZM6.23809 3.33251C5.41404 2.78413 5.80227 1.5 6.7921 1.5H13.2079C14.1977 1.5 14.586 2.78413 13.7619 3.33251L10.554 5.46726C10.2184 5.69058 9.78157 5.69058 9.44599 5.46726L6.23809 3.33251ZM1.75 4.02632C1.75 3.22731 2.64077 2.75098 3.30527 3.19465L9.57812 7.38281V7.38281C9.83711 7.54108 10.1629 7.54108 10.4219 7.38281V7.38281L16.6947 3.19465C17.3592 2.75098 18.25 3.22731 18.25 4.02632V11C18.25 11.5523 17.8023 12 17.25 12H2.75C2.19772 12 1.75 11.5523 1.75 11V4.02632Z" fill="#757575"/>
</svg>
